<svg xmlns="http://www.w3.org/2000/svg" data-name="레이어 1" viewBox="0 0 799 811">
  <path fill="#ffd22d" d="m77.058 299.52 212.2-32.256-30.407-214.47c4.597-20.663 18.83-22.201 31.751-26.343l177.49-24.473c16.039-1.492 30.23.874 33.63 30.782l26.899 205.03 212.11-28.823c18.331-.488 33.994 4.397 35.169 38.455l19.734 160.62c6.143 25.114-4.025 38.956-33.355 39.555l-200.35 27.757 28.69 214.09c-5.172 13.196-7.518 28.895-27.864 28.644l-190.32 24.827c-16.644-1.068-20.116-14.707-22.805-29.093l-28.811-205.94-207.04 29.501c-20.459-.279-38.521-4.291-38.006-37.228l-23.217-164.06c-1.286-16.126 2.038-30.334 24.497-36.575z"/>
  <path fill="none" stroke="#c3872f" stroke-width="24.5" d="m332.49 203.49 49.589-127.88 87.342 110.32z"/>
  <rect width="126.69" height="124.24" x="65.506" y="363.04" fill="none" stroke="#c3872f" stroke-width="24.5" ry="0" transform="rotate(-7.732)"/>
  <ellipse cx="661.7" cy="339.15" fill="none" stroke="#c3872f" stroke-width="24.5" rx="67.576" ry="68.867"/>
  <path fill="#c3872f" stroke="#c3872f" stroke-width="24.5" d="M513.9 539.61 400.73 685.06m-17.471-131.8 147.86 112.17"/>
  <path fill="#9e6f23" d="m788.98 440.24-49.652 64.902c-4.727 5.038-11.267 8.766-22.744 8.929l-147.03 18.218-7.63-56.933 201.8-27.974c9.571.22 14.64-1.135 25.255-7.141zM263.65 40.946l-50.185 64.794c-4.208 5.73-5.492 13.815-3.635 24.432l19.436 146.21 59.985-9.118-28.435-200.56c-4.252-17.732.068-20.374 2.833-25.754zM55.666 314.54 7.715 375.149c-5.848 7.129-7.979 16.121-6.208 27.068l26.03 179.42c6.967 27.174 20.404 21.217 33.33 22.024l208.1-28.641 29.683 205.72c-1.285 17.375 10.733 26.61 35.9 27.799l177.6-24.502c9.458-.777 18.275-3.268 24.244-13.372l44.921-60.428c-5.204 6.765-11.833 7.518-18.564 7.838l-174.53 22.768c-20.689 6.807-34.83.38-38.588-27.034L320.3 507.939l-206.51 29.426c-29.072.915-39.03-13.696-38.006-37.228l-23.217-164.06c-1.713-7.354.469-14.464 3.105-21.547z"/>
</svg>
